<?xml version="1.0" encoding="UTF-8"?>
<svg version="1.1" xmlns="http://www.w3.org/2000/svg" width="227" height="219">
<path d="M0 0 C8.11828692 6.68300967 12.84373169 13.14147168 17.12109375 22.74609375 C19.21841592 27.48341405 19.21841592 27.48341405 23.12109375 30.74609375 C26.02501301 31.05528728 26.02501301 31.05528728 29.36499023 31.01733398 C31.29730751 31.03261391 31.29730751 31.03261391 33.2686615 31.04820251 C33.9567433 31.04914351 34.6448251 31.0500845 35.35375786 31.051054 C37.51019918 31.0547181 39.66618077 31.07144494 41.82252502 31.09181213 C47.95264132 31.14722253 54.0828252 31.17791386 60.21313477 31.20239258 C63.96444514 31.21827445 67.71542881 31.24849902 71.4665699 31.28715706 C72.89505608 31.29880115 74.32360069 31.30473736 75.75213432 31.30483818 C77.75073632 31.30503039 79.74930734 31.32481609 81.74780273 31.34545898 C82.88458969 31.35052963 84.02137665 31.35560028 85.19261169 31.36082458 C88.42365567 31.7858986 89.80846502 32.49010276 92.12109375 34.74609375 C95.17345329 45.76600942 88.36545894 61.83474416 83.30078125 71.35546875 C73.28775168 87.80612513 56.5887459 99.09572482 38.12109375 103.74609375 C37.52949463 103.91810303 36.93789551 104.0901123 36.32836914 104.26733398 C31.66609599 105.27858469 26.80939334 104.97400985 22.05859375 104.99609375 C20.4353418 105.02703125 20.4353418 105.02703125 18.77929688 105.05859375 C0.74664822 105.14513316 -15.44622639 97.39081098 -28.4921875 85.1640625 C-37.9142529 75.61863126 -43.29613289 65.56281694 -47.0925293 52.83520508 C-48.142911 49.42826061 -48.99111775 46.93867391 -51.87890625 44.74609375 C-54.89275707 43.23916834 -58.02723235 43.54812248 -61.3359375 43.5 C-62.85612535 43.46705251 -64.3763075 43.43384102 -65.89648438 43.40039062 C-68.29268347 43.35305042 -70.68886094 43.30863554 -73.08520508 43.26928711 C-75.39819786 43.2294285 -77.71071151 43.17790934 -80.0234375 43.125 C-80.73506546 43.11658585 -81.44669342 43.10817169 -82.17988586 43.09950256 C-87.98268233 42.95619634 -91.4113713 42.14692257 -95.62890625 38.12109375 C-98.50326074 34.39170976 -98.87890625 31.43310241 -98.87890625 26.74609375 C-97.24381693 22.02250237 -94.99762117 19.52622632 -90.87890625 16.74609375 C-87.64649738 15.66862413 -84.945121 15.73925311 -81.56982422 15.76123047 C-74.04940059 15.8916224 -74.04940059 15.8916224 -67.41796875 12.92578125 C-65.74264018 10.60549051 -64.32754369 8.21236906 -62.87890625 5.74609375 C-47.13518658 -11.31241193 -18.68832144 -13.75048972 0 0 Z M-87.87890625 27.74609375 C-87.54890625 29.39609375 -87.21890625 31.04609375 -86.87890625 32.74609375 C-82.91890625 32.74609375 -78.95890625 32.74609375 -74.87890625 32.74609375 C-74.54890625 30.43609375 -74.21890625 28.12609375 -73.87890625 25.74609375 C-75.83694132 25.69220288 -77.79539534 25.65335158 -79.75390625 25.62109375 C-80.84445313 25.59789062 -81.935 25.5746875 -83.05859375 25.55078125 C-86.01601135 25.44548841 -86.01601135 25.44548841 -87.87890625 27.74609375 Z " fill="#8E8E8E" transform="translate(114.87890625,64.25390625)"/>
<path d="M0 0 C8.11828692 6.68300967 12.84373169 13.14147168 17.12109375 22.74609375 C19.21841592 27.48341405 19.21841592 27.48341405 23.12109375 30.74609375 C26.02501301 31.05528728 26.02501301 31.05528728 29.36499023 31.01733398 C31.29730751 31.03261391 31.29730751 31.03261391 33.2686615 31.04820251 C33.9567433 31.04914351 34.6448251 31.0500845 35.35375786 31.051054 C37.51019918 31.0547181 39.66618077 31.07144494 41.82252502 31.09181213 C47.95264132 31.14722253 54.0828252 31.17791386 60.21313477 31.20239258 C63.96444514 31.21827445 67.71542881 31.24849902 71.4665699 31.28715706 C72.89505608 31.29880115 74.32360069 31.30473736 75.75213432 31.30483818 C77.75073632 31.30503039 79.74930734 31.32481609 81.74780273 31.34545898 C82.88458969 31.35052963 84.02137665 31.35560028 85.19261169 31.36082458 C88.42365567 31.7858986 89.80846502 32.49010276 92.12109375 34.74609375 C95.17345329 45.76600942 88.36545894 61.83474416 83.30078125 71.35546875 C73.28775168 87.80612513 56.5887459 99.09572482 38.12109375 103.74609375 C37.52949463 103.91810303 36.93789551 104.0901123 36.32836914 104.26733398 C31.66609599 105.27858469 26.80939334 104.97400985 22.05859375 104.99609375 C20.4353418 105.02703125 20.4353418 105.02703125 18.77929688 105.05859375 C0.74664822 105.14513316 -15.44622639 97.39081098 -28.4921875 85.1640625 C-37.9142529 75.61863126 -43.29613289 65.56281694 -47.0925293 52.83520508 C-48.142911 49.42826061 -48.99111775 46.93867391 -51.87890625 44.74609375 C-54.89275707 43.23916834 -58.02723235 43.54812248 -61.3359375 43.5 C-62.85612535 43.46705251 -64.3763075 43.43384102 -65.89648438 43.40039062 C-68.29268347 43.35305042 -70.68886094 43.30863554 -73.08520508 43.26928711 C-75.39819786 43.2294285 -77.71071151 43.17790934 -80.0234375 43.125 C-80.73506546 43.11658585 -81.44669342 43.10817169 -82.17988586 43.09950256 C-87.98268233 42.95619634 -91.4113713 42.14692257 -95.62890625 38.12109375 C-98.50326074 34.39170976 -98.87890625 31.43310241 -98.87890625 26.74609375 C-97.24381693 22.02250237 -94.99762117 19.52622632 -90.87890625 16.74609375 C-87.64649738 15.66862413 -84.945121 15.73925311 -81.56982422 15.76123047 C-74.04940059 15.8916224 -74.04940059 15.8916224 -67.41796875 12.92578125 C-65.74264018 10.60549051 -64.32754369 8.21236906 -62.87890625 5.74609375 C-47.13518658 -11.31241193 -18.68832144 -13.75048972 0 0 Z M-57.24609375 13.33203125 C-61.92132498 19.44579517 -65.87890625 25.86222195 -65.87890625 33.74609375 C-64.35910156 33.80216797 -64.35910156 33.80216797 -62.80859375 33.859375 C-61.45699686 33.92507763 -60.10543596 33.99152346 -58.75390625 34.05859375 C-58.08875 34.08115234 -57.42359375 34.10371094 -56.73828125 34.12695312 C-50.469977 34.46494992 -46.65778758 36.00072757 -42.18359375 40.390625 C-39.36023388 44.04657183 -38.25117303 48.0429557 -37.00390625 52.43359375 C-34.64948913 60.04135701 -31.75374098 66.36800601 -26.87890625 72.74609375 C-26.33492187 73.47054687 -25.7909375 74.195 -25.23046875 74.94140625 C-16.3922368 85.85434053 -3.02103474 92.96677296 10.68359375 95.37109375 C29.20240738 97.25496539 45.83958099 94.02622558 60.90234375 82.64453125 C72.2669983 72.95719018 79.2930483 60.4005111 82.12109375 45.74609375 C82.14739368 44.0796346 82.15253469 42.41246383 82.12109375 40.74609375 C81.35989731 40.74244812 80.59870087 40.73880249 79.81443787 40.73504639 C72.62014058 40.69708689 65.4263566 40.64014506 58.2323904 40.56219101 C54.53438552 40.52278049 50.83661644 40.49056097 47.13842773 40.47509766 C43.5654787 40.45988804 39.99317823 40.42536816 36.42051888 40.37778473 C35.06152058 40.36301489 33.70242966 40.35505526 32.34335136 40.3542099 C19.04410191 40.33762677 19.04410191 40.33762677 13.12109375 35.74609375 C11.5546875 33.5546875 11.5546875 33.5546875 10.55859375 31.18359375 C10.16027344 30.30832031 9.76195313 29.43304688 9.3515625 28.53125 C8.94550781 27.61214844 8.53945312 26.69304687 8.12109375 25.74609375 C2.27402269 13.31028775 -5.41335678 6.3866897 -18.12890625 1.49609375 C-32.64047669 -1.40622034 -47.064933 2.21003716 -57.24609375 13.33203125 Z M-87.87890625 27.74609375 C-87.54890625 29.39609375 -87.21890625 31.04609375 -86.87890625 32.74609375 C-82.91890625 32.74609375 -78.95890625 32.74609375 -74.87890625 32.74609375 C-74.54890625 30.43609375 -74.21890625 28.12609375 -73.87890625 25.74609375 C-75.83694132 25.69220288 -77.79539534 25.65335158 -79.75390625 25.62109375 C-80.84445313 25.59789062 -81.935 25.5746875 -83.05859375 25.55078125 C-86.01601135 25.44548841 -86.01601135 25.44548841 -87.87890625 27.74609375 Z " fill="#5A5C5B" transform="translate(114.87890625,64.25390625)"/>
<path d="M0 0 C1.08539063 -0.02449219 2.17078125 -0.04898438 3.2890625 -0.07421875 C9.59908996 -0.09736066 13.48765421 0.08888879 18.25 4.375 C21.96908352 8.58343661 22.83960284 11.81152444 22.57421875 17.265625 C21.83207599 22.09402366 18.8206088 25.2507173 15.25 28.375 C12.23322461 29.3805918 10.03488793 29.57305664 6.875 29.625 C5.47121094 29.66367188 5.47121094 29.66367188 4.0390625 29.703125 C0.6789703 29.30782004 -1.06049084 28.41345937 -3.75 26.375 C-8.39360594 20.32192307 -13.14742542 12.09516758 -14.125 4.4375 C-12.96847316 -1.9233976 -4.9609311 0.00580905 0 0 Z " fill="#525252" transform="translate(129.75,118.625)"/>
<path d="M0 0 C10.82367448 -0.77681874 10.82367448 -0.77681874 15.3125 2.1875 C17 5 17 5 17 7.625 C15.91546902 10.20076108 15.34108221 11.46618752 13 13 C10.125 13.5625 10.125 13.5625 7 13 C4.0241597 10.0241597 1.503287 6.96321117 0 3 C0 2.01 0 1.02 0 0 Z " fill="#8C8C8C" transform="translate(127,127)"/>
<path d="M0 0 C2.4375 1.5625 2.4375 1.5625 4 4 C3.78571429 10.21428571 3.78571429 10.21428571 1 13 C-2.88002054 13.43111339 -5.14921964 13.53173772 -8.5 11.4375 C-10 9 -10 9 -9.9375 5.375 C-8.39784223 -0.16776797 -5.29368537 -0.64820637 0 0 Z " fill="#535353" transform="translate(84,77)"/>
<path d="M0 0 C0.99 0.33 1.98 0.66 3 1 C-0.96 4.96 -4.92 8.92 -9 13 C-9 8.86218946 -7.28490393 7.79080004 -4.5 4.8125 C-3.6646875 3.91144531 -2.829375 3.01039062 -1.96875 2.08203125 C-0.99421875 1.05142578 -0.99421875 1.05142578 0 0 Z " fill="#7B817D" transform="translate(56,66)"/>
</svg>
